<svg xmlns="http://www.w3.org/2000/svg" version="1.1" xmlns:xlink="http://www.w3.org/1999/xlink" xmlns:svgjs="http://svgjs.dev/svgjs" width="128" height="128" viewBox="0 0 128 128"><g transform="matrix(0.6204819277108434,0,0,0.6204819277108434,23.85630032749497,12.221578125)"><svg viewBox="0 0 74 96" data-background-color="#ffffff" preserveAspectRatio="xMidYMid meet" height="166" width="128" xmlns="http://www.w3.org/2000/svg" xmlns:xlink="http://www.w3.org/1999/xlink"><g id="tight-bounds" transform="matrix(1,0,0,1,0.40330755287102704,0.25950000000000273)"><svg viewBox="0 0 73.19338489425795 95.48100000000001" height="95.48100000000001" width="73.19338489425795"><g><svg viewBox="0 0 73.19338489425795 95.48100000000001" height="95.48100000000001" width="73.19338489425795"><g><svg viewBox="0 0 73.19338489425795 95.48100000000001" height="95.48100000000001" width="73.19338489425795"><g id="textblocktransform"><svg viewBox="0 0 73.19338489425795 95.48100000000001" height="95.48100000000001" width="73.19338489425795" id="textblock"><g><svg viewBox="0 0 73.19338489425795 95.48100000000001" height="95.48100000000001" width="73.19338489425795"><g><svg viewBox="0 0 73.19338489425795 95.48100000000001" height="95.48100000000001" width="73.19338489425795"><g><svg xmlns="http://www.w3.org/2000/svg" xmlns:xlink="http://www.w3.org/1999/xlink" version="1.1" x="0" y="0" viewBox="31.3862504603523 10.746851628271667 129.94901919927588 169.5189028365246" style="enable-background:new 0 0 192 192;" xml:space="preserve" height="95.48100000000001" width="73.19338489425795" class="icon-icon-0" data-fill-palette-color="accent" id="icon-0"><path d="M58 50.5C57.2 28.9 77.6 9.6 99 10.8 120.2 10.2 139.7 29.2 139.3 50.5L128.2 48.4C126.5 34.4 114.2 22.3 99.9 21.7 84.7 20.7 70.4 33.3 68.9 48.3 65.3 49.1 61.6 49.8 58 50.5" fill="#059212" data-fill-palette-color="accent"></path><path d="M31.4 66C73.1 51.5 119.6 51.6 161.3 66 161.1 78.6 162.1 91.4 159.6 103.9 153.1 136.5 130.2 165.1 100.2 179.2 98.2 180.2 95.7 180.8 93.6 179.6 60.5 164.7 36 132 31.9 96 31 86 31.6 76 31.4 66M43.3 74.6C43.3 81 43.1 87.5 43.6 93.9 47 125.4 67.9 154.1 96.4 167.8 122.6 155 142.5 129.7 148.1 101 149.9 92.3 149.4 83.4 149.5 74.6 115 64.5 77.7 64.5 43.3 74.6" fill="#059212" data-fill-palette-color="accent"></path><path d="M83.4 105.1C82.6 97.9 88.9 91.2 96 90.8 103.6 90.7 110.7 98.4 109.1 106 108.6 110.1 105.3 112.9 102.5 115.5 105.9 117.6 109.4 119.9 111.4 123.5 113.4 126.7 113.1 130.6 113.3 134.2 102 134 90.6 134.1 79.3 134.1 78.2 126.2 83.1 118.6 90.2 115.4 87 112.8 83.6 109.5 83.4 105.1" fill="#059212" data-fill-palette-color="accent"></path></svg></g></svg></g></svg></g></svg></g></svg></g></svg></g><defs></defs></svg><rect width="73.19338489425795" height="95.48100000000001" fill="none" stroke="none" visibility="hidden"></rect></g></svg></g></svg>